<svg width="70" height="33" viewBox="0 0 70 33" fill="none" xmlns="http://www.w3.org/2000/svg">
<path d="M35.002 24.7263L6.00002 1.58211C5.27194 0.819436 4.52703 0.00409258 3.50002 0.00409258C2.47301 0.00409258 1.85904 -0.0938726 1.13097 0.668801C0.406632 1.43541 0 2.07876 0 3.16013C0 4.2415 1.27566 5.02354 2 5.79015L32.2617 30.9028C32.6264 31.2886 33.0616 31.5927 33.541 31.7966C34.3591 32.1396 35.2629 32.1835 36.1076 31.9214L36.463 31.7966C36.9423 31.5927 37.3775 31.2886 37.7423 30.9028L68 5.79015C68.7243 5.02354 69.5 4.2415 69.5 3.16013C69.5 2.07876 69.5934 1.44372 68.869 0.677115C68.141 -0.0855581 67.527 0.00410942 66.5 0.00410942C65.473 0.00410942 64.7281 0.819436 64 1.58211L35.002 24.7263Z" fill="#FCE34C"/>
</svg>
