<svg width="21" height="19" viewBox="0 0 21 19" fill="none" xmlns="http://www.w3.org/2000/svg">
<path d="M2.91627 7.65646C1.75081 6.3834 1.75081 4.29184 2.91627 3.01878C3.99023 1.84511 5.67017 1.78665 6.80413 2.84339L7.53311 3.58735L8.97755 2.10966L8.44507 1.56448C6.53264 -0.525617 3.36325 -0.525617 1.42532 1.58933C-0.475108 3.66627 -0.475108 7.00751 1.42532 9.08591L10.5 19L19.5747 9.08591C21.4751 7.00751 21.4751 3.66627 19.5747 1.58787C17.6367 -0.527079 14.4674 -0.527079 12.5309 1.58787L9.75603 4.62217L8.42407 5.98438L9.86852 7.46207L11.2215 6.07647L14.0219 3.01878C15.1513 1.78372 16.9543 1.78372 18.0837 3.01878C19.2492 4.29184 19.2492 6.3834 18.0837 7.65646L10.5 15.9438L2.91627 7.65646Z" fill="#2C2323"/>
</svg>
