<svg width="40" height="37" viewBox="0 0 40 37" fill="none" xmlns="http://www.w3.org/2000/svg">
<g clip-path="url(#clip0)">
<mask id="path-1-inside-1" fill="white">
<path d="M19.5985 2.49332C29.0936 2.49332 36.2576 9.52019 36.2576 18.3605C36.2576 27.2008 29.0936 34.2277 19.5985 34.2277C10.1034 34.2277 2.556 27.2008 2.556 18.3605C2.556 9.52019 10.1034 2.49332 19.5985 2.49332ZM19.5985 0.226562C8.8861 0.226563 0.121338 8.38686 0.121338 18.3605C0.121338 28.3341 8.8861 36.4944 19.5985 36.4944C30.3109 36.4944 39.0757 28.3341 39.0757 18.3605C39.0757 8.38686 30.3109 0.226562 19.5985 0.226562Z"/>
</mask>
<path d="M19.5985 2.49332C29.0936 2.49332 36.2576 9.52019 36.2576 18.3605C36.2576 27.2008 29.0936 34.2277 19.5985 34.2277C10.1034 34.2277 2.556 27.2008 2.556 18.3605C2.556 9.52019 10.1034 2.49332 19.5985 2.49332ZM19.5985 0.226562C8.8861 0.226563 0.121338 8.38686 0.121338 18.3605C0.121338 28.3341 8.8861 36.4944 19.5985 36.4944C30.3109 36.4944 39.0757 28.3341 39.0757 18.3605C39.0757 8.38686 30.3109 0.226562 19.5985 0.226562Z" fill="black"/>
<path d="M39.0757 18.3605H19.0757H39.0757ZM19.5985 22.4933C19.3173 22.4933 18.4762 22.345 17.6306 21.5323C16.7771 20.7121 16.2576 19.5098 16.2576 18.3605H56.2576C56.2576 -2.26784 39.3821 -17.5067 19.5985 -17.5067V22.4933ZM16.2576 18.3605C16.2576 17.2112 16.7771 16.0089 17.6305 15.1887C18.4762 14.376 19.3172 14.2277 19.5985 14.2277V54.2277C39.3822 54.2277 56.2576 38.9887 56.2576 18.3605H16.2576ZM19.5985 14.2277C19.8247 14.2277 20.4565 14.3303 21.145 14.9713C21.8687 15.6451 22.556 16.8749 22.556 18.3605H-17.444C-17.444 39.5684 0.427665 54.2277 19.5985 54.2277V14.2277ZM22.556 18.3605C22.556 19.846 21.8687 21.0759 21.145 21.7497C20.4565 22.3907 19.8246 22.4933 19.5985 22.4933V-17.5067C0.427728 -17.5067 -17.444 -2.84749 -17.444 18.3605H22.556ZM19.5985 -19.7734C-0.789549 -19.7734 -19.8787 -3.98082 -19.8787 18.3605H20.1213C20.1213 18.8327 20.0111 19.2765 19.8534 19.6221C19.7048 19.9479 19.546 20.1216 19.4711 20.1913C19.3379 20.3154 19.3513 20.2266 19.5985 20.2266V-19.7734ZM-19.8787 18.3605C-19.8787 40.7018 -0.789522 56.4944 19.5985 56.4944V16.4944C19.3512 16.4944 19.3379 16.4056 19.4711 16.5297C19.546 16.5994 19.7048 16.7731 19.8534 17.0989C20.0111 17.4444 20.1213 17.8883 20.1213 18.3605H-19.8787ZM19.5985 56.4944C39.9865 56.4944 59.0757 40.7018 59.0757 18.3605H19.0757C19.0757 17.8883 19.1859 17.4444 19.3436 17.0989C19.4922 16.7731 19.651 16.5994 19.7259 16.5297C19.8592 16.4056 19.8458 16.4944 19.5985 16.4944V56.4944ZM59.0757 18.3605C59.0757 -3.98082 39.9866 -19.7734 19.5985 -19.7734V20.2266C19.8457 20.2266 19.8591 20.3154 19.7259 20.1913C19.651 20.1216 19.4922 19.9479 19.3436 19.6221C19.1859 19.2765 19.0757 18.8327 19.0757 18.3605H59.0757Z" fill="black" mask="url(#path-1-inside-1)"/>
<path d="M19.5989 15.4137C18.1382 15.4137 17.1643 16.3204 17.1643 17.4538V27.2007C17.1643 28.3341 18.1381 29.2408 19.5989 29.2408C21.0597 29.2408 22.0336 28.3341 22.0336 27.2008V17.4538C22.0336 16.3204 21.0597 15.4137 19.5989 15.4137ZM19.5989 12.0136C21.0597 12.0136 22.0336 11.1069 22.0336 9.74686C22.0336 8.3868 21.0597 7.4801 19.5989 7.4801C18.1382 7.4801 17.1643 8.3868 17.1643 9.74686C17.1643 11.1069 18.1381 12.0136 19.5989 12.0136Z" fill="black"/>
</g>
<defs>
<clipPath id="clip0">
<rect width="39.1978" height="36.4945" fill="white"/>
</clipPath>
</defs>
</svg>
