<svg width="16" height="16" viewBox="0 0 16 16" fill="none" xmlns="http://www.w3.org/2000/svg">
<path d="M1.41421 14.1422C0.633165 13.3612 0.633165 12.0949 1.41421 11.3138L11.3137 1.41432C12.0948 0.63327 13.3611 0.63327 14.1421 1.41432V1.41432C14.9232 2.19537 14.9232 3.4617 14.1421 4.24275L4.24264 14.1422C3.46159 14.9233 2.19526 14.9233 1.41421 14.1422V14.1422Z" fill="white"/>
<path d="M1.41416 1.41421C2.1952 0.633165 3.46153 0.633165 4.24258 1.41421L14.1421 11.3137C14.9231 12.0948 14.9231 13.3611 14.1421 14.1421V14.1421C13.361 14.9232 12.0947 14.9232 11.3137 14.1421L1.41416 4.24264C0.633107 3.46159 0.633107 2.19526 1.41416 1.41421V1.41421Z" fill="white"/>
</svg>
